# xmcd
#
# Track frame offsets: 
#        150
#        15175
#        31122
#        42527
#        61487
#        78139
#        91692
#        104954
#        117667
#        134592
#        148640
#        165525
#        179897
#        197882
#        208874
#        222394
#        237619
#        253784
#        268147
#        287614
#        305612
#
# Disc length: 4319 seconds
#
# Revision: 0
# Processed by: cddbd v1.5.1PL0 Copyright (c) Steve Scherf et al.
# Submitted via: ExactAudioCopy v0.95a5
#
DISCID=4a10dd15
DTITLE=Various Artist - Sony-ATV Country Music [CD5: 1985-1990)
DYEAR=2003
DGENRE=Country
TTITLE0=George Strait - The Cowboy Rides Away
TTITLE1=Reba McEntire - Somebody Should Leave
TTITLE2=Mel McDonald - Stand Up
TTITLE3=Judds - Grandpa (Tell Me 'Bout The Good Old Days)
TTITLE4=Exile - Hang On To Your Heart
TTITLE5=T. Graham Brown - I Wish That I Could Hurt That Way Again
TTITLE6=T. Graham Brown - Brilliant Conversationalist
TTITLE7=O'Kanes - Can't Stop My Heart From Loving You
TTITLE8=Conway Twitty - Julia
TTITLE9=George Strait - Ocean Front Property
TTITLE10=Steve Wariner - Small Town Girl
TTITLE11=Moe Brandy - Till I'm Too Old To Die Young
TTITLE12=New Grass Revival - Can't Stop Now
TTITLE13=Vern Gosdin - Set 'Em Up Joe
TTITLE14=Shenandoah - Church On Cumberland Road
TTITLE15=Conway Twitty - I Wish I Was Still In Your Dreams
TTITLE16=Keith Whitley - I'm No Stranger To The Rain
TTITLE17=Pam Tills - Don't Tell Me What To Do
TTITLE18=Garth Brooks - Friends In Low Places
TTITLE19=Travis Tritt - Help Me Hold On
TTITLE20=Travis Tritt - I'm Gonna Be Somebody
EXTD=
EXTT0=
EXTT1=
EXTT2=
EXTT3=
EXTT4=
EXTT5=
EXTT6=
EXTT7=
EXTT8=
EXTT9=
EXTT10=
EXTT11=
EXTT12=
EXTT13=
EXTT14=
EXTT15=
EXTT16=
EXTT17=
EXTT18=
EXTT19=
EXTT20=
PLAYORDER=
